<mxfile host="app.diagrams.net" agent="Mozilla/5.0 (X11; Linux x86_64; rv:109.0) Gecko/20100101 Firefox/115.0" version="24.7.13">
  <diagram id="projectDiagram" name="PConT Project Outline">
    <mxGraphModel dx="989" dy="526" grid="1" gridSize="10" guides="1" tooltips="1" connect="1" arrows="1" fold="1" page="1" pageScale="1" pageWidth="850" pageHeight="1100" math="0" shadow="0">
      <root>
        <mxCell id="0" />
        <mxCell id="1" parent="0" />
        <mxCell id="2" value="PConT" style="ellipse;html=1;fillColor=#1E90FF;fontColor=#FFFFFF;fontStyle=1;" parent="1" vertex="1">
          <mxGeometry x="400" y="50" width="120" height="80" as="geometry" />
        </mxCell>
        <mxCell id="3" value="Setup Script" style="rounded=1;html=1;fillColor=#FF6347;fontColor=#FFFFFF;" parent="1" vertex="1">
          <mxGeometry x="150" y="200" width="140" height="60" as="geometry" />
        </mxCell>
        <mxCell id="4" value="Proxy Acquisition" style="rounded=1;html=1;fillColor=#FFD700;fontColor=#000000;" parent="1" vertex="1">
          <mxGeometry x="350" y="200" width="140" height="60" as="geometry" />
        </mxCell>
        <mxCell id="5" value="Main Script (PConT.sh)" style="rounded=1;html=1;fillColor=#7FFF00;fontColor=#000000;" parent="1" vertex="1">
          <mxGeometry x="550" y="200" width="180" height="60" as="geometry" />
        </mxCell>
        <mxCell id="6" style="endArrow=block;strokeColor=#20B2AA;" parent="1" source="2" target="3" edge="1">
          <mxGeometry relative="1" as="geometry" />
        </mxCell>
        <mxCell id="7" style="endArrow=block;strokeColor=#20B2AA;" parent="1" source="2" target="4" edge="1">
          <mxGeometry relative="1" as="geometry" />
        </mxCell>
        <mxCell id="8" style="endArrow=block;strokeColor=#20B2AA;" parent="1" source="2" target="5" edge="1">
          <mxGeometry relative="1" as="geometry" />
        </mxCell>
        <mxCell id="9" value="Install Dependencies" style="rounded=1;html=1;fillColor=#FFA07A;fontColor=#000000;" parent="1" vertex="1">
          <mxGeometry x="60" y="300" width="160" height="50" as="geometry" />
        </mxCell>
        <mxCell id="10" value="Run Configuration" style="rounded=1;html=1;fillColor=#FFA07A;fontColor=#000000;" parent="1" vertex="1">
          <mxGeometry x="190" y="370" width="140" height="50" as="geometry" />
        </mxCell>
        <mxCell id="11" style="endArrow=block;strokeColor=#20B2AA;" parent="1" source="3" target="9" edge="1">
          <mxGeometry relative="1" as="geometry" />
        </mxCell>
        <mxCell id="12" style="endArrow=block;strokeColor=#20B2AA;" parent="1" source="3" target="10" edge="1">
          <mxGeometry relative="1" as="geometry" />
        </mxCell>
        <mxCell id="13" value="Scraping APIs" style="rounded=1;html=1;fillColor=#FFFF99;fontColor=#000000;" parent="1" vertex="1">
          <mxGeometry x="350" y="300" width="120" height="50" as="geometry" />
        </mxCell>
        <mxCell id="14" value="Saving Proxies" style="rounded=1;html=1;fillColor=#FFFF99;fontColor=#000000;" parent="1" vertex="1">
          <mxGeometry x="350" y="370" width="120" height="50" as="geometry" />
        </mxCell>
        <mxCell id="15" style="endArrow=block;strokeColor=#20B2AA;" parent="1" source="4" target="13" edge="1">
          <mxGeometry relative="1" as="geometry" />
        </mxCell>
        <mxCell id="16" style="endArrow=block;strokeColor=#20B2AA;" parent="1" source="4" target="14" edge="1">
          <mxGeometry relative="1" as="geometry">
            <Array as="points">
              <mxPoint x="520" y="330" />
            </Array>
          </mxGeometry>
        </mxCell>
        <mxCell id="17" value="Configure ProxyChains" style="rounded=1;html=1;fillColor=#98FB98;fontColor=#000000;" parent="1" vertex="1">
          <mxGeometry x="580" y="300" width="160" height="50" as="geometry" />
        </mxCell>
        <mxCell id="18" value="Run Proxy" style="rounded=1;html=1;fillColor=#98FB98;fontColor=#000000;" parent="1" vertex="1">
          <mxGeometry x="580" y="370" width="160" height="50" as="geometry" />
        </mxCell>
        <mxCell id="19" style="endArrow=block;strokeColor=#20B2AA;" parent="1" source="5" target="17" edge="1">
          <mxGeometry relative="1" as="geometry" />
        </mxCell>
        <mxCell id="20" style="endArrow=block;strokeColor=#20B2AA;" parent="1" source="5" target="18" edge="1">
          <mxGeometry relative="1" as="geometry">
            <Array as="points">
              <mxPoint x="530" y="330" />
            </Array>
          </mxGeometry>
        </mxCell>
      </root>
    </mxGraphModel>
  </diagram>
</mxfile>
